# xmcd CD database file
#
# Track frame offsets:
#	150
#	13729
#	28009
#	41546
#	55212
#	96588
#	110458
#	119953
#	130867
#	142367
#	156266
#	170066
#	185350
#	200545
#	208923
#	221696
#	233347
#	246168
#	254446
#	270954
#
# Disc length: 3751 seconds
#
# Revision: 0
# Processed by: cddbd v1.5.2PL0 Copyright (c) Steve Scherf et al.
# Submitted via: CDex 1.70beta2
#
DISCID=360ea514
DTITLE=Oscar Peterson - Body and Soul
DYEAR=2005
DGENRE=Jazz
TTITLE0=The Way You Look Tonight
TTITLE1=Deep Purple
TTITLE2=Gypsy In My Soul
TTITLE3=Lover
TTITLE4=Gai, Padovani, Ray's Blues
TTITLE5=Summer Nocturne
TTITLE6=For You
TTITLE7=Exactly Like You
TTITLE8=(I Don't Stand) A Ghost Of A Chance With You
TTITLE9=Smoke Gets In Your Eyes
TTITLE10=Takin' A Chance On Love
TTITLE11=Squatty Roo
TTITLE12=Body And Soul
TTITLE13=Air Mail Special
TTITLE14=Caravan
TTITLE15=To A Wild Rose
TTITLE16=Salute To Garner
TTITLE17=Whispering
TTITLE18=Night And Day
TTITLE19=I'm Forever Blowing Bubbles
EXTD=YEAR: 2005
EXTT0=
EXTT1=
EXTT2=
EXTT3=
EXTT4=
EXTT5=
EXTT6=
EXTT7=
EXTT8=
EXTT9=
EXTT10=
EXTT11=
EXTT12=
EXTT13=
EXTT14=
EXTT15=
EXTT16=
EXTT17=
EXTT18=
EXTT19=
PLAYORDER=
